<svg width="30" height="30" viewBox="0 0 30 30" fill="none" xmlns="http://www.w3.org/2000/svg">
<circle cx="15" cy="15" r="15" fill="white"/>
<path fill-rule="evenodd" clip-rule="evenodd" d="M14.6154 8.65385C11.3223 8.65385 8.65385 11.3202 8.65385 14.6078C8.65385 17.8955 11.3223 20.5618 14.6154 20.5618C16.2583 20.5618 17.7449 19.8989 18.8238 18.825C19.9075 17.7463 20.5769 16.2556 20.5769 14.6078C20.5769 11.3202 17.9085 8.65385 14.6154 8.65385ZM7.5 14.6078C7.5 10.6817 10.6863 7.5 14.6154 7.5C18.5445 7.5 21.7308 10.6817 21.7308 14.6078C21.7308 16.3669 21.0905 17.9773 20.0312 19.218L22.3308 21.5149C22.5562 21.7401 22.5564 22.1054 22.3313 22.3308C22.1061 22.5562 21.7408 22.5564 21.5154 22.3313L19.2137 20.0322C17.9738 21.082 16.3682 21.7157 14.6154 21.7157C10.6863 21.7157 7.5 18.534 7.5 14.6078Z" fill="#3D3D3D"/>
</svg>
